<mxfile host="app.diagrams.net" modified="2024-10-15T18:02:54.569Z" agent="5.0 (Windows NT 10.0; Win64; x64) AppleWebKit/537.36 (KHTML, like Gecko) Chrome/129.0.0.0 Safari/537.36" version="20.7.4" etag="_vzt1k0ZDrcwlBEklZqq" type="github" pages="2">
  <diagram id="j1sxuwxj8HLncfi2qC2Y" name="Page-1">
    <mxGraphModel dx="1470" dy="959" grid="1" gridSize="10" guides="1" tooltips="1" connect="1" arrows="1" fold="1" page="1" pageScale="1" pageWidth="850" pageHeight="1100" math="0" shadow="0">
      <root>
        <mxCell id="0" />
        <mxCell id="1" parent="0" />
        <mxCell id="ErkY1cMMRne8ZrcNufB6-23" style="edgeStyle=orthogonalEdgeStyle;rounded=0;orthogonalLoop=1;jettySize=auto;html=1;" edge="1" parent="1" source="ErkY1cMMRne8ZrcNufB6-1" target="ErkY1cMMRne8ZrcNufB6-18">
          <mxGeometry relative="1" as="geometry" />
        </mxCell>
        <mxCell id="ErkY1cMMRne8ZrcNufB6-33" style="edgeStyle=orthogonalEdgeStyle;rounded=0;orthogonalLoop=1;jettySize=auto;html=1;" edge="1" parent="1" source="ErkY1cMMRne8ZrcNufB6-1" target="ErkY1cMMRne8ZrcNufB6-31">
          <mxGeometry relative="1" as="geometry" />
        </mxCell>
        <mxCell id="Zuoy0o953Ipi7pEghv5p-2" style="edgeStyle=orthogonalEdgeStyle;rounded=0;orthogonalLoop=1;jettySize=auto;html=1;" edge="1" parent="1" source="ErkY1cMMRne8ZrcNufB6-1" target="Zuoy0o953Ipi7pEghv5p-1">
          <mxGeometry relative="1" as="geometry" />
        </mxCell>
        <mxCell id="ErkY1cMMRne8ZrcNufB6-1" value="Pilot" style="rounded=0;whiteSpace=wrap;html=1;" vertex="1" parent="1">
          <mxGeometry x="355" y="560" width="60" height="30" as="geometry" />
        </mxCell>
        <mxCell id="ErkY1cMMRne8ZrcNufB6-2" value="&lt;u&gt;PilotID&lt;/u&gt;" style="ellipse;whiteSpace=wrap;html=1;" vertex="1" parent="1">
          <mxGeometry x="190" y="480" width="70" height="50" as="geometry" />
        </mxCell>
        <mxCell id="ErkY1cMMRne8ZrcNufB6-3" value="SSN" style="ellipse;whiteSpace=wrap;html=1;" vertex="1" parent="1">
          <mxGeometry x="270" y="480" width="70" height="50" as="geometry" />
        </mxCell>
        <mxCell id="ErkY1cMMRne8ZrcNufB6-4" value="First Name" style="ellipse;whiteSpace=wrap;html=1;" vertex="1" parent="1">
          <mxGeometry x="350" y="480" width="70" height="50" as="geometry" />
        </mxCell>
        <mxCell id="ErkY1cMMRne8ZrcNufB6-5" value="Last Name" style="ellipse;whiteSpace=wrap;html=1;" vertex="1" parent="1">
          <mxGeometry x="430" y="480" width="70" height="50" as="geometry" />
        </mxCell>
        <mxCell id="ErkY1cMMRne8ZrcNufB6-6" value="Address" style="ellipse;whiteSpace=wrap;html=1;" vertex="1" parent="1">
          <mxGeometry x="510" y="480" width="70" height="50" as="geometry" />
        </mxCell>
        <mxCell id="ErkY1cMMRne8ZrcNufB6-7" value="Salary" style="ellipse;whiteSpace=wrap;html=1;" vertex="1" parent="1">
          <mxGeometry x="590" y="480" width="70" height="50" as="geometry" />
        </mxCell>
        <mxCell id="ErkY1cMMRne8ZrcNufB6-8" value="" style="endArrow=none;html=1;rounded=0;exitX=0;exitY=0.5;exitDx=0;exitDy=0;" edge="1" parent="1" source="ErkY1cMMRne8ZrcNufB6-1">
          <mxGeometry width="50" height="50" relative="1" as="geometry">
            <mxPoint x="190" y="580" as="sourcePoint" />
            <mxPoint x="240" y="530" as="targetPoint" />
          </mxGeometry>
        </mxCell>
        <mxCell id="ErkY1cMMRne8ZrcNufB6-11" value="" style="endArrow=none;html=1;rounded=0;" edge="1" parent="1" source="ErkY1cMMRne8ZrcNufB6-1">
          <mxGeometry width="50" height="50" relative="1" as="geometry">
            <mxPoint x="430" y="573" as="sourcePoint" />
            <mxPoint x="310" y="528" as="targetPoint" />
          </mxGeometry>
        </mxCell>
        <mxCell id="ErkY1cMMRne8ZrcNufB6-14" value="" style="endArrow=none;html=1;rounded=0;entryX=0.5;entryY=1;entryDx=0;entryDy=0;exitX=0.5;exitY=0;exitDx=0;exitDy=0;" edge="1" parent="1" source="ErkY1cMMRne8ZrcNufB6-1" target="ErkY1cMMRne8ZrcNufB6-4">
          <mxGeometry width="50" height="50" relative="1" as="geometry">
            <mxPoint x="400" y="620" as="sourcePoint" />
            <mxPoint x="450" y="570" as="targetPoint" />
          </mxGeometry>
        </mxCell>
        <mxCell id="ErkY1cMMRne8ZrcNufB6-15" value="" style="endArrow=none;html=1;rounded=0;entryX=0.295;entryY=1.02;entryDx=0;entryDy=0;entryPerimeter=0;exitX=0.644;exitY=-0.1;exitDx=0;exitDy=0;exitPerimeter=0;" edge="1" parent="1" source="ErkY1cMMRne8ZrcNufB6-1" target="ErkY1cMMRne8ZrcNufB6-5">
          <mxGeometry width="50" height="50" relative="1" as="geometry">
            <mxPoint x="400" y="620" as="sourcePoint" />
            <mxPoint x="450" y="570" as="targetPoint" />
          </mxGeometry>
        </mxCell>
        <mxCell id="ErkY1cMMRne8ZrcNufB6-16" value="" style="endArrow=none;html=1;rounded=0;exitX=0.75;exitY=0;exitDx=0;exitDy=0;" edge="1" parent="1" source="ErkY1cMMRne8ZrcNufB6-1" target="ErkY1cMMRne8ZrcNufB6-6">
          <mxGeometry width="50" height="50" relative="1" as="geometry">
            <mxPoint x="400" y="620" as="sourcePoint" />
            <mxPoint x="450" y="570" as="targetPoint" />
          </mxGeometry>
        </mxCell>
        <mxCell id="ErkY1cMMRne8ZrcNufB6-17" value="" style="endArrow=none;html=1;rounded=0;entryX=0;entryY=1;entryDx=0;entryDy=0;exitX=1;exitY=0.25;exitDx=0;exitDy=0;" edge="1" parent="1" source="ErkY1cMMRne8ZrcNufB6-1" target="ErkY1cMMRne8ZrcNufB6-7">
          <mxGeometry width="50" height="50" relative="1" as="geometry">
            <mxPoint x="400" y="620" as="sourcePoint" />
            <mxPoint x="450" y="570" as="targetPoint" />
          </mxGeometry>
        </mxCell>
        <mxCell id="ErkY1cMMRne8ZrcNufB6-24" style="edgeStyle=orthogonalEdgeStyle;rounded=0;orthogonalLoop=1;jettySize=auto;html=1;" edge="1" parent="1" source="ErkY1cMMRne8ZrcNufB6-18" target="ErkY1cMMRne8ZrcNufB6-20">
          <mxGeometry relative="1" as="geometry" />
        </mxCell>
        <mxCell id="ErkY1cMMRne8ZrcNufB6-18" value="Has Profile (1:1)" style="rhombus;whiteSpace=wrap;html=1;" vertex="1" parent="1">
          <mxGeometry x="180" y="610" width="120" height="50" as="geometry" />
        </mxCell>
        <mxCell id="ErkY1cMMRne8ZrcNufB6-20" value="" style="rounded=0;whiteSpace=wrap;html=1;" vertex="1" parent="1">
          <mxGeometry x="90" y="710" width="120" height="60" as="geometry" />
        </mxCell>
        <mxCell id="ErkY1cMMRne8ZrcNufB6-19" value="Pilot Profile" style="rounded=0;whiteSpace=wrap;html=1;" vertex="1" parent="1">
          <mxGeometry x="100" y="720" width="100" height="40" as="geometry" />
        </mxCell>
        <mxCell id="ErkY1cMMRne8ZrcNufB6-25" value="&lt;u&gt;ProfileID&lt;/u&gt;" style="ellipse;whiteSpace=wrap;html=1;" vertex="1" parent="1">
          <mxGeometry x="30" y="800" width="70" height="50" as="geometry" />
        </mxCell>
        <mxCell id="ErkY1cMMRne8ZrcNufB6-26" value="Food Preferences" style="ellipse;whiteSpace=wrap;html=1;" vertex="1" parent="1">
          <mxGeometry x="110" y="800" width="70" height="50" as="geometry" />
        </mxCell>
        <mxCell id="ErkY1cMMRne8ZrcNufB6-27" value="Favorite Destinations" style="ellipse;whiteSpace=wrap;html=1;" vertex="1" parent="1">
          <mxGeometry x="190" y="800" width="70" height="50" as="geometry" />
        </mxCell>
        <mxCell id="ErkY1cMMRne8ZrcNufB6-28" value="" style="endArrow=none;html=1;rounded=0;exitX=0.339;exitY=1.006;exitDx=0;exitDy=0;exitPerimeter=0;" edge="1" parent="1" source="ErkY1cMMRne8ZrcNufB6-20" target="ErkY1cMMRne8ZrcNufB6-25">
          <mxGeometry width="50" height="50" relative="1" as="geometry">
            <mxPoint x="310" y="620" as="sourcePoint" />
            <mxPoint x="360" y="570" as="targetPoint" />
          </mxGeometry>
        </mxCell>
        <mxCell id="ErkY1cMMRne8ZrcNufB6-29" value="" style="endArrow=none;html=1;rounded=0;entryX=0.572;entryY=1.039;entryDx=0;entryDy=0;entryPerimeter=0;" edge="1" parent="1" source="ErkY1cMMRne8ZrcNufB6-26" target="ErkY1cMMRne8ZrcNufB6-20">
          <mxGeometry width="50" height="50" relative="1" as="geometry">
            <mxPoint x="310" y="620" as="sourcePoint" />
            <mxPoint x="360" y="570" as="targetPoint" />
          </mxGeometry>
        </mxCell>
        <mxCell id="ErkY1cMMRne8ZrcNufB6-30" value="" style="endArrow=none;html=1;rounded=0;entryX=0.75;entryY=1;entryDx=0;entryDy=0;exitX=0.5;exitY=0;exitDx=0;exitDy=0;" edge="1" parent="1" source="ErkY1cMMRne8ZrcNufB6-27" target="ErkY1cMMRne8ZrcNufB6-20">
          <mxGeometry width="50" height="50" relative="1" as="geometry">
            <mxPoint x="310" y="620" as="sourcePoint" />
            <mxPoint x="360" y="570" as="targetPoint" />
          </mxGeometry>
        </mxCell>
        <mxCell id="ErkY1cMMRne8ZrcNufB6-35" style="edgeStyle=orthogonalEdgeStyle;rounded=0;orthogonalLoop=1;jettySize=auto;html=1;" edge="1" parent="1" source="ErkY1cMMRne8ZrcNufB6-31">
          <mxGeometry relative="1" as="geometry">
            <mxPoint x="390" y="710" as="targetPoint" />
          </mxGeometry>
        </mxCell>
        <mxCell id="ErkY1cMMRne8ZrcNufB6-31" value="Certified (M:N)" style="rhombus;whiteSpace=wrap;html=1;" vertex="1" parent="1">
          <mxGeometry x="330" y="620" width="120" height="50" as="geometry" />
        </mxCell>
        <mxCell id="ErkY1cMMRne8ZrcNufB6-36" value="Aircraft Model" style="rounded=0;whiteSpace=wrap;html=1;" vertex="1" parent="1">
          <mxGeometry x="350" y="710" width="100" height="40" as="geometry" />
        </mxCell>
        <mxCell id="ErkY1cMMRne8ZrcNufB6-37" value="&lt;u&gt;ModelID&lt;br&gt;&lt;/u&gt;" style="ellipse;whiteSpace=wrap;html=1;" vertex="1" parent="1">
          <mxGeometry x="300" y="800" width="70" height="50" as="geometry" />
        </mxCell>
        <mxCell id="ErkY1cMMRne8ZrcNufB6-38" value="Name" style="ellipse;whiteSpace=wrap;html=1;" vertex="1" parent="1">
          <mxGeometry x="370" y="800" width="70" height="50" as="geometry" />
        </mxCell>
        <mxCell id="ErkY1cMMRne8ZrcNufB6-39" value="Capacity" style="ellipse;whiteSpace=wrap;html=1;" vertex="1" parent="1">
          <mxGeometry x="440" y="800" width="70" height="50" as="geometry" />
        </mxCell>
        <mxCell id="ErkY1cMMRne8ZrcNufB6-40" value="Cursing Range" style="ellipse;whiteSpace=wrap;html=1;" vertex="1" parent="1">
          <mxGeometry x="510" y="800" width="70" height="50" as="geometry" />
        </mxCell>
        <mxCell id="ErkY1cMMRne8ZrcNufB6-42" value="" style="endArrow=none;html=1;rounded=0;entryX=0.25;entryY=1;entryDx=0;entryDy=0;exitX=0.5;exitY=0;exitDx=0;exitDy=0;" edge="1" parent="1" source="ErkY1cMMRne8ZrcNufB6-37" target="ErkY1cMMRne8ZrcNufB6-36">
          <mxGeometry width="50" height="50" relative="1" as="geometry">
            <mxPoint x="235" y="810" as="sourcePoint" />
            <mxPoint x="190" y="780" as="targetPoint" />
          </mxGeometry>
        </mxCell>
        <mxCell id="ErkY1cMMRne8ZrcNufB6-43" value="" style="endArrow=none;html=1;rounded=0;entryX=0.367;entryY=1.025;entryDx=0;entryDy=0;exitX=0.5;exitY=0;exitDx=0;exitDy=0;entryPerimeter=0;" edge="1" parent="1" source="ErkY1cMMRne8ZrcNufB6-38" target="ErkY1cMMRne8ZrcNufB6-36">
          <mxGeometry width="50" height="50" relative="1" as="geometry">
            <mxPoint x="345" y="810" as="sourcePoint" />
            <mxPoint x="385" y="760" as="targetPoint" />
          </mxGeometry>
        </mxCell>
        <mxCell id="ErkY1cMMRne8ZrcNufB6-44" value="" style="endArrow=none;html=1;rounded=0;entryX=0.5;entryY=1;entryDx=0;entryDy=0;" edge="1" parent="1" source="ErkY1cMMRne8ZrcNufB6-39" target="ErkY1cMMRne8ZrcNufB6-36">
          <mxGeometry width="50" height="50" relative="1" as="geometry">
            <mxPoint x="415" y="810" as="sourcePoint" />
            <mxPoint x="396.70000000000005" y="761" as="targetPoint" />
          </mxGeometry>
        </mxCell>
        <mxCell id="ErkY1cMMRne8ZrcNufB6-45" value="" style="endArrow=none;html=1;rounded=0;entryX=1;entryY=1;entryDx=0;entryDy=0;" edge="1" parent="1" source="ErkY1cMMRne8ZrcNufB6-40" target="ErkY1cMMRne8ZrcNufB6-36">
          <mxGeometry width="50" height="50" relative="1" as="geometry">
            <mxPoint x="464.65666321983167" y="814.6566632198317" as="sourcePoint" />
            <mxPoint x="410" y="760" as="targetPoint" />
          </mxGeometry>
        </mxCell>
        <mxCell id="Zuoy0o953Ipi7pEghv5p-5" style="edgeStyle=orthogonalEdgeStyle;rounded=0;orthogonalLoop=1;jettySize=auto;html=1;" edge="1" parent="1" source="Zuoy0o953Ipi7pEghv5p-1" target="Zuoy0o953Ipi7pEghv5p-4">
          <mxGeometry relative="1" as="geometry" />
        </mxCell>
        <mxCell id="Zuoy0o953Ipi7pEghv5p-1" value="Operate (M:N)" style="rhombus;whiteSpace=wrap;html=1;" vertex="1" parent="1">
          <mxGeometry x="600" y="610" width="120" height="50" as="geometry" />
        </mxCell>
        <mxCell id="Zuoy0o953Ipi7pEghv5p-4" value="Flight" style="rounded=0;whiteSpace=wrap;html=1;" vertex="1" parent="1">
          <mxGeometry x="720" y="710" width="120" height="40" as="geometry" />
        </mxCell>
        <mxCell id="Zuoy0o953Ipi7pEghv5p-6" value="&lt;u&gt;FlightID&lt;br&gt;&lt;/u&gt;" style="ellipse;whiteSpace=wrap;html=1;" vertex="1" parent="1">
          <mxGeometry x="600" y="810" width="70" height="50" as="geometry" />
        </mxCell>
        <mxCell id="Zuoy0o953Ipi7pEghv5p-7" value="From Airport" style="ellipse;whiteSpace=wrap;html=1;" vertex="1" parent="1">
          <mxGeometry x="670" y="810" width="70" height="50" as="geometry" />
        </mxCell>
        <mxCell id="Zuoy0o953Ipi7pEghv5p-8" value="To Airport" style="ellipse;whiteSpace=wrap;html=1;" vertex="1" parent="1">
          <mxGeometry x="740" y="810" width="70" height="50" as="geometry" />
        </mxCell>
        <mxCell id="Zuoy0o953Ipi7pEghv5p-9" value="Distance" style="ellipse;whiteSpace=wrap;html=1;" vertex="1" parent="1">
          <mxGeometry x="810" y="810" width="70" height="50" as="geometry" />
        </mxCell>
        <mxCell id="Zuoy0o953Ipi7pEghv5p-10" value="" style="endArrow=none;html=1;rounded=0;entryX=0;entryY=1;entryDx=0;entryDy=0;exitX=0.5;exitY=0;exitDx=0;exitDy=0;" edge="1" parent="1" source="Zuoy0o953Ipi7pEghv5p-6" target="Zuoy0o953Ipi7pEghv5p-4">
          <mxGeometry width="50" height="50" relative="1" as="geometry">
            <mxPoint x="535" y="820" as="sourcePoint" />
            <mxPoint x="675" y="760" as="targetPoint" />
          </mxGeometry>
        </mxCell>
        <mxCell id="Zuoy0o953Ipi7pEghv5p-11" value="" style="endArrow=none;html=1;rounded=0;entryX=0.322;entryY=1.058;entryDx=0;entryDy=0;exitX=0.5;exitY=0;exitDx=0;exitDy=0;entryPerimeter=0;" edge="1" parent="1" source="Zuoy0o953Ipi7pEghv5p-7" target="Zuoy0o953Ipi7pEghv5p-4">
          <mxGeometry width="50" height="50" relative="1" as="geometry">
            <mxPoint x="645" y="820" as="sourcePoint" />
            <mxPoint x="686.7" y="761" as="targetPoint" />
          </mxGeometry>
        </mxCell>
        <mxCell id="Zuoy0o953Ipi7pEghv5p-12" value="" style="endArrow=none;html=1;rounded=0;" edge="1" parent="1" source="Zuoy0o953Ipi7pEghv5p-8" target="Zuoy0o953Ipi7pEghv5p-4">
          <mxGeometry width="50" height="50" relative="1" as="geometry">
            <mxPoint x="715" y="820" as="sourcePoint" />
            <mxPoint x="700" y="760" as="targetPoint" />
          </mxGeometry>
        </mxCell>
        <mxCell id="Zuoy0o953Ipi7pEghv5p-13" value="" style="endArrow=none;html=1;rounded=0;entryX=0.5;entryY=1;entryDx=0;entryDy=0;" edge="1" parent="1" source="Zuoy0o953Ipi7pEghv5p-9" target="Zuoy0o953Ipi7pEghv5p-4">
          <mxGeometry width="50" height="50" relative="1" as="geometry">
            <mxPoint x="764.6566632198317" y="824.6566632198317" as="sourcePoint" />
            <mxPoint x="750" y="760" as="targetPoint" />
          </mxGeometry>
        </mxCell>
        <mxCell id="Zuoy0o953Ipi7pEghv5p-14" value="Duration" style="ellipse;whiteSpace=wrap;html=1;" vertex="1" parent="1">
          <mxGeometry x="880" y="810" width="70" height="50" as="geometry" />
        </mxCell>
        <mxCell id="Zuoy0o953Ipi7pEghv5p-15" value="Departure" style="ellipse;whiteSpace=wrap;html=1;" vertex="1" parent="1">
          <mxGeometry x="950" y="810" width="70" height="50" as="geometry" />
        </mxCell>
        <mxCell id="Zuoy0o953Ipi7pEghv5p-16" value="Arrival" style="ellipse;whiteSpace=wrap;html=1;" vertex="1" parent="1">
          <mxGeometry x="1020" y="810" width="70" height="50" as="geometry" />
        </mxCell>
        <mxCell id="Zuoy0o953Ipi7pEghv5p-17" value="" style="endArrow=none;html=1;rounded=0;entryX=0.75;entryY=1;entryDx=0;entryDy=0;exitX=0.5;exitY=0;exitDx=0;exitDy=0;" edge="1" parent="1" source="Zuoy0o953Ipi7pEghv5p-14" target="Zuoy0o953Ipi7pEghv5p-4">
          <mxGeometry width="50" height="50" relative="1" as="geometry">
            <mxPoint x="865" y="810" as="sourcePoint" />
            <mxPoint x="906.6999999999998" y="751" as="targetPoint" />
          </mxGeometry>
        </mxCell>
        <mxCell id="Zuoy0o953Ipi7pEghv5p-18" value="" style="endArrow=none;html=1;rounded=0;" edge="1" parent="1" source="Zuoy0o953Ipi7pEghv5p-15">
          <mxGeometry width="50" height="50" relative="1" as="geometry">
            <mxPoint x="935" y="810" as="sourcePoint" />
            <mxPoint x="810" y="750" as="targetPoint" />
          </mxGeometry>
        </mxCell>
        <mxCell id="Zuoy0o953Ipi7pEghv5p-19" value="" style="endArrow=none;html=1;rounded=0;entryX=0.75;entryY=1;entryDx=0;entryDy=0;" edge="1" parent="1" source="Zuoy0o953Ipi7pEghv5p-16" target="Zuoy0o953Ipi7pEghv5p-4">
          <mxGeometry width="50" height="50" relative="1" as="geometry">
            <mxPoint x="984.6566632198317" y="814.6566632198317" as="sourcePoint" />
            <mxPoint x="940" y="750" as="targetPoint" />
          </mxGeometry>
        </mxCell>
        <mxCell id="Zuoy0o953Ipi7pEghv5p-36" style="edgeStyle=orthogonalEdgeStyle;rounded=0;orthogonalLoop=1;jettySize=auto;html=1;" edge="1" parent="1" source="Zuoy0o953Ipi7pEghv5p-20" target="Zuoy0o953Ipi7pEghv5p-35">
          <mxGeometry relative="1" as="geometry" />
        </mxCell>
        <mxCell id="Zuoy0o953Ipi7pEghv5p-20" value="Tourist" style="rounded=0;whiteSpace=wrap;html=1;" vertex="1" parent="1">
          <mxGeometry x="755" y="960" width="75" height="40" as="geometry" />
        </mxCell>
        <mxCell id="Zuoy0o953Ipi7pEghv5p-22" value="&lt;u&gt;TouristID&lt;/u&gt;" style="ellipse;whiteSpace=wrap;html=1;" vertex="1" parent="1">
          <mxGeometry x="610" y="1040" width="80" height="40" as="geometry" />
        </mxCell>
        <mxCell id="Zuoy0o953Ipi7pEghv5p-23" value="First Name" style="ellipse;whiteSpace=wrap;html=1;" vertex="1" parent="1">
          <mxGeometry x="690" y="1040" width="70" height="40" as="geometry" />
        </mxCell>
        <mxCell id="Zuoy0o953Ipi7pEghv5p-24" value="Last Name" style="ellipse;whiteSpace=wrap;html=1;" vertex="1" parent="1">
          <mxGeometry x="760" y="1040" width="70" height="40" as="geometry" />
        </mxCell>
        <mxCell id="Zuoy0o953Ipi7pEghv5p-26" value="Nickname" style="ellipse;whiteSpace=wrap;html=1;" vertex="1" parent="1">
          <mxGeometry x="830" y="1040" width="70" height="40" as="geometry" />
        </mxCell>
        <mxCell id="Zuoy0o953Ipi7pEghv5p-27" value="Budget" style="ellipse;whiteSpace=wrap;html=1;" vertex="1" parent="1">
          <mxGeometry x="900" y="1040" width="70" height="40" as="geometry" />
        </mxCell>
        <mxCell id="Zuoy0o953Ipi7pEghv5p-28" value="Age" style="ellipse;whiteSpace=wrap;html=1;" vertex="1" parent="1">
          <mxGeometry x="970" y="1040" width="70" height="40" as="geometry" />
        </mxCell>
        <mxCell id="Zuoy0o953Ipi7pEghv5p-29" value="" style="endArrow=none;html=1;rounded=0;entryX=0.129;entryY=1.108;entryDx=0;entryDy=0;entryPerimeter=0;" edge="1" parent="1" source="Zuoy0o953Ipi7pEghv5p-22" target="Zuoy0o953Ipi7pEghv5p-20">
          <mxGeometry width="50" height="50" relative="1" as="geometry">
            <mxPoint x="1080" y="810" as="sourcePoint" />
            <mxPoint x="1130" y="760" as="targetPoint" />
          </mxGeometry>
        </mxCell>
        <mxCell id="Zuoy0o953Ipi7pEghv5p-30" value="" style="endArrow=none;html=1;rounded=0;entryX=0.25;entryY=1;entryDx=0;entryDy=0;exitX=1;exitY=0;exitDx=0;exitDy=0;" edge="1" parent="1" source="Zuoy0o953Ipi7pEghv5p-23" target="Zuoy0o953Ipi7pEghv5p-20">
          <mxGeometry width="50" height="50" relative="1" as="geometry">
            <mxPoint x="688.7847584788901" y="1056.1126165233427" as="sourcePoint" />
            <mxPoint x="774.675" y="1014.3199999999999" as="targetPoint" />
          </mxGeometry>
        </mxCell>
        <mxCell id="Zuoy0o953Ipi7pEghv5p-31" value="" style="endArrow=none;html=1;rounded=0;" edge="1" parent="1" source="Zuoy0o953Ipi7pEghv5p-24">
          <mxGeometry width="50" height="50" relative="1" as="geometry">
            <mxPoint x="762.998737341529" y="1039.9978643762695" as="sourcePoint" />
            <mxPoint x="790" y="1000" as="targetPoint" />
          </mxGeometry>
        </mxCell>
        <mxCell id="Zuoy0o953Ipi7pEghv5p-32" value="" style="endArrow=none;html=1;rounded=0;entryX=0.609;entryY=1.058;entryDx=0;entryDy=0;entryPerimeter=0;" edge="1" parent="1" source="Zuoy0o953Ipi7pEghv5p-26" target="Zuoy0o953Ipi7pEghv5p-20">
          <mxGeometry width="50" height="50" relative="1" as="geometry">
            <mxPoint x="769.748737341529" y="1065.8578643762694" as="sourcePoint" />
            <mxPoint x="793.75" y="1020" as="targetPoint" />
          </mxGeometry>
        </mxCell>
        <mxCell id="Zuoy0o953Ipi7pEghv5p-33" value="" style="endArrow=none;html=1;rounded=0;entryX=1;entryY=1;entryDx=0;entryDy=0;" edge="1" parent="1" source="Zuoy0o953Ipi7pEghv5p-27" target="Zuoy0o953Ipi7pEghv5p-20">
          <mxGeometry width="50" height="50" relative="1" as="geometry">
            <mxPoint x="1080" y="810" as="sourcePoint" />
            <mxPoint x="1130" y="760" as="targetPoint" />
          </mxGeometry>
        </mxCell>
        <mxCell id="Zuoy0o953Ipi7pEghv5p-34" value="" style="endArrow=none;html=1;rounded=0;entryX=1;entryY=1;entryDx=0;entryDy=0;" edge="1" parent="1" source="Zuoy0o953Ipi7pEghv5p-28" target="Zuoy0o953Ipi7pEghv5p-20">
          <mxGeometry width="50" height="50" relative="1" as="geometry">
            <mxPoint x="920.251262658471" y="1055.8578643762692" as="sourcePoint" />
            <mxPoint x="840" y="1010" as="targetPoint" />
          </mxGeometry>
        </mxCell>
        <mxCell id="Zuoy0o953Ipi7pEghv5p-38" style="edgeStyle=orthogonalEdgeStyle;rounded=0;orthogonalLoop=1;jettySize=auto;html=1;entryX=1;entryY=0.75;entryDx=0;entryDy=0;" edge="1" parent="1" source="Zuoy0o953Ipi7pEghv5p-35" target="Zuoy0o953Ipi7pEghv5p-4">
          <mxGeometry relative="1" as="geometry" />
        </mxCell>
        <mxCell id="Zuoy0o953Ipi7pEghv5p-35" value="Book(M:N)" style="rhombus;whiteSpace=wrap;html=1;" vertex="1" parent="1">
          <mxGeometry x="1190" y="670" width="105" height="50" as="geometry" />
        </mxCell>
      </root>
    </mxGraphModel>
  </diagram>
  <diagram id="SSHgEhM4vhsyq6d9_Zni" name="Page-2">
    <mxGraphModel dx="1470" dy="959" grid="1" gridSize="10" guides="1" tooltips="1" connect="1" arrows="1" fold="1" page="1" pageScale="1" pageWidth="850" pageHeight="1100" math="0" shadow="0">
      <root>
        <mxCell id="0" />
        <mxCell id="1" parent="0" />
      </root>
    </mxGraphModel>
  </diagram>
</mxfile>
